<svg width="36" height="36" viewBox="0 0 36 36" fill="none" xmlns="http://www.w3.org/2000/svg">
<g clip-path="url(#clip0_885_4345)">
<path d="M0 18C0 8.05888 8.05888 0 18 0C27.9411 0 36 8.05888 36 18C36 27.9411 27.9411 36 18 36C8.05888 36 0 27.9411 0 18Z" fill="#A353CA"/>
<path d="M20.3176 24.091C16.7279 24.091 13.8166 21.2867 13.8166 17.829V17.7529C13.8166 16.9438 13.874 16.1347 14.032 15.3428C15.0084 10.5158 18.6304 7.61475 23.4551 7.61475C24.8084 7.61475 25.9033 8.66936 25.9033 9.97294V18.7107C25.9033 21.6809 23.4012 24.091 20.3176 24.091Z" stroke="#FAFAFA" stroke-width="2" stroke-miterlimit="10"/>
<path d="M13.1166 22.6975V26.0273C13.1166 27.3309 14.2832 28.3855 15.7263 28.3855C21.1612 28.3855 25.7991 23.9665 25.8961 18.5828" stroke="#FAFAFA" stroke-width="2" stroke-miterlimit="10"/>
<path d="M15.0084 12.4348H11.1207C9.76736 12.4348 8.67249 13.4894 8.67249 14.793C8.67249 19.9209 12.9874 24.0771 18.3109 24.0771H19.8689C21.9653 24.0771 23.9433 23.2334 24.9915 21.6497" stroke="#FAFAFA" stroke-width="2" stroke-miterlimit="10"/>
</g>
<defs>
<clipPath id="clip0_885_4345">
<rect width="36" height="36" fill="white"/>
</clipPath>
</defs>
</svg>
